<?xml version="1.0" standalone="no"?>
<!DOCTYPE svg PUBLIC "-//W3C//DTD SVG 20010904//EN"
 "http://www.w3.org/TR/2001/REC-SVG-20010904/DTD/svg10.dtd">
<svg version="1.0" xmlns="http://www.w3.org/2000/svg"
 width="512.000000pt" height="512.000000pt" viewBox="0 0 512.000000 512.000000"
 preserveAspectRatio="xMidYMid meet">

<g transform="translate(0.000000,512.000000) scale(0.100000,-0.100000)"
fill="#000000" stroke="none">
<path d="M3830 4729 c0 -5 4 -9 8 -9 5 0 45 -34 90 -76 172 -159 288 -358 352
-601 31 -120 48 -232 65 -438 24 -293 49 -392 145 -578 61 -118 70 -159 38
-165 -9 -2 -104 31 -210 72 -106 41 -256 98 -333 126 -213 78 -372 148 -450
198 -89 56 -271 240 -352 356 -35 49 -63 82 -63 73 0 -8 14 -55 31 -104 98
-278 261 -466 495 -574 242 -111 384 -202 652 -416 119 -96 219 -177 221 -178
7 -8 -23 -112 -45 -156 -56 -112 -153 -202 -314 -290 -154 -84 -365 -237 -569
-412 -41 -35 -63 -47 -88 -47 -39 0 -54 19 -80 105 -15 52 -17 87 -13 260 3
110 5 283 4 385 0 172 -2 190 -26 257 -36 102 -105 199 -226 320 -57 57 -106
103 -107 101 -2 -2 23 -57 56 -123 88 -179 112 -279 113 -480 1 -137 -3 -175
-24 -265 -23 -98 -25 -123 -25 -375 0 -148 4 -349 9 -445 8 -150 7 -183 -7
-230 -22 -73 -58 -126 -123 -179 -91 -73 -91 -98 -4 -108 43 -5 62 -14 94 -42
23 -20 58 -49 79 -65 29 -21 51 -54 89 -132 75 -152 88 -144 99 56 4 78 13
152 22 177 19 51 259 418 374 571 106 141 144 172 541 436 331 220 376 254
423 323 53 76 131 279 132 343 1 69 -24 124 -74 159 -37 26 -37 26 -44 116
-16 212 -44 330 -135 565 -78 200 -86 227 -94 328 -12 146 -147 682 -188 752
-86 144 -233 294 -345 353 -71 37 -193 73 -193 56z"/>
<path d="M1265 4655 c-324 -72 -602 -288 -729 -567 -50 -110 -75 -220 -86
-375 -12 -160 -25 -232 -88 -478 -45 -175 -46 -184 -47 -335 0 -143 -2 -158
-23 -191 -34 -55 -59 -171 -72 -330 -15 -179 -7 -289 25 -344 47 -80 122 -132
258 -176 173 -56 311 -135 544 -310 157 -118 194 -161 294 -346 40 -74 102
-178 137 -231 106 -161 145 -254 191 -457 35 -155 47 -159 111 -30 49 98 61
109 240 208 93 52 100 73 41 113 -23 15 -41 31 -41 35 0 5 -37 71 -81 146
-100 167 -132 241 -132 308 0 28 6 147 13 266 11 190 10 228 -4 320 -18 115
-14 183 24 489 25 192 36 231 102 363 26 53 44 97 38 97 -24 0 -137 -129 -172
-196 -39 -74 -178 -479 -197 -574 -6 -31 -10 -132 -8 -230 2 -191 -5 -221 -58
-256 -24 -15 -29 -15 -70 1 -54 20 -112 75 -187 177 -31 42 -76 95 -100 117
-56 54 -270 198 -430 289 -135 77 -183 121 -193 175 -13 68 -8 75 145 186 176
128 261 195 355 279 111 101 189 147 336 200 333 121 416 167 547 306 121 128
204 273 242 421 21 81 36 227 25 244 -4 7 -21 -30 -39 -81 -82 -238 -243 -428
-463 -545 -43 -23 -141 -63 -216 -88 -162 -53 -494 -198 -587 -255 -185 -114
-279 -72 -207 92 25 55 149 262 187 311 42 54 137 87 345 121 83 14 309 84
345 107 25 16 -502 3 -587 -15 -138 -28 -214 -86 -359 -271 -14 -17 -15 -18
-10 -2 25 80 49 245 55 382 7 143 11 170 40 255 18 52 55 138 84 190 92 169
178 237 537 424 l145 76 -80 -1 c-44 -1 -107 -7 -140 -14z"/>
</g>
</svg>
